<svg width="55" height="55" viewBox="0 0 55 55" fill="none" xmlns="http://www.w3.org/2000/svg">
<g id="solar:calendar-outline">
<g id="Group">
<path id="Vector" d="M38.9583 32.0833C39.5661 32.0833 40.149 31.8419 40.5788 31.4121C41.0086 30.9823 41.25 30.3995 41.25 29.7917C41.25 29.1839 41.0086 28.601 40.5788 28.1712C40.149 27.7414 39.5661 27.5 38.9583 27.5C38.3505 27.5 37.7677 27.7414 37.3379 28.1712C36.9081 28.601 36.6667 29.1839 36.6667 29.7917C36.6667 30.3995 36.9081 30.9823 37.3379 31.4121C37.7677 31.8419 38.3505 32.0833 38.9583 32.0833ZM38.9583 41.25C39.5661 41.25 40.149 41.0086 40.5788 40.5788C41.0086 40.149 41.25 39.5661 41.25 38.9583C41.25 38.3505 41.0086 37.7676 40.5788 37.3379C40.149 36.9081 39.5661 36.6667 38.9583 36.6667C38.3505 36.6667 37.7677 36.9081 37.3379 37.3379C36.9081 37.7676 36.6667 38.3505 36.6667 38.9583C36.6667 39.5661 36.9081 40.149 37.3379 40.5788C37.7677 41.0086 38.3505 41.25 38.9583 41.25ZM29.7917 29.7917C29.7917 30.3995 29.5502 30.9823 29.1205 31.4121C28.6907 31.8419 28.1078 32.0833 27.5 32.0833C26.8922 32.0833 26.3093 31.8419 25.8795 31.4121C25.4498 30.9823 25.2083 30.3995 25.2083 29.7917C25.2083 29.1839 25.4498 28.601 25.8795 28.1712C26.3093 27.7414 26.8922 27.5 27.5 27.5C28.1078 27.5 28.6907 27.7414 29.1205 28.1712C29.5502 28.601 29.7917 29.1839 29.7917 29.7917ZM29.7917 38.9583C29.7917 39.5661 29.5502 40.149 29.1205 40.5788C28.6907 41.0086 28.1078 41.25 27.5 41.25C26.8922 41.25 26.3093 41.0086 25.8795 40.5788C25.4498 40.149 25.2083 39.5661 25.2083 38.9583C25.2083 38.3505 25.4498 37.7676 25.8795 37.3379C26.3093 36.9081 26.8922 36.6667 27.5 36.6667C28.1078 36.6667 28.6907 36.9081 29.1205 37.3379C29.5502 37.7676 29.7917 38.3505 29.7917 38.9583ZM16.0417 32.0833C16.6495 32.0833 17.2323 31.8419 17.6621 31.4121C18.0919 30.9823 18.3333 30.3995 18.3333 29.7917C18.3333 29.1839 18.0919 28.601 17.6621 28.1712C17.2323 27.7414 16.6495 27.5 16.0417 27.5C15.4339 27.5 14.851 27.7414 14.4212 28.1712C13.9914 28.601 13.75 29.1839 13.75 29.7917C13.75 30.3995 13.9914 30.9823 14.4212 31.4121C14.851 31.8419 15.4339 32.0833 16.0417 32.0833ZM16.0417 41.25C16.6495 41.25 17.2323 41.0086 17.6621 40.5788C18.0919 40.149 18.3333 39.5661 18.3333 38.9583C18.3333 38.3505 18.0919 37.7676 17.6621 37.3379C17.2323 36.9081 16.6495 36.6667 16.0417 36.6667C15.4339 36.6667 14.851 36.9081 14.4212 37.3379C13.9914 37.7676 13.75 38.3505 13.75 38.9583C13.75 39.5661 13.9914 40.149 14.4212 40.5788C14.851 41.0086 15.4339 41.25 16.0417 41.25Z" fill="black"/>
<path id="Vector_2" fill-rule="evenodd" clip-rule="evenodd" d="M16.0404 4.01074C16.4962 4.01074 16.9334 4.19182 17.2557 4.51415C17.578 4.83648 17.7591 5.27365 17.7591 5.72949V7.47803C19.2762 7.44824 20.9468 7.44824 22.7847 7.44824H32.2104C34.0506 7.44824 35.7212 7.44824 37.2383 7.47803V5.72949C37.2383 5.27365 37.4194 4.83648 37.7417 4.51415C38.064 4.19182 38.5012 4.01074 38.957 4.01074C39.4129 4.01074 39.85 4.19182 40.1724 4.51415C40.4947 4.83648 40.6758 5.27365 40.6758 5.72949V7.6247C41.2716 7.67053 41.8354 7.72783 42.3693 7.79887C45.0552 8.16095 47.2299 8.92178 48.9464 10.636C50.6606 12.3524 51.4214 14.5272 51.7835 17.213C52.1341 19.8255 52.1341 23.1599 52.1341 27.372V32.212C52.1341 36.4241 52.1341 39.7607 51.7835 42.371C51.4214 45.0568 50.6606 47.2316 48.9464 48.948C47.2299 50.6622 45.0552 51.423 42.3693 51.7851C39.7568 52.1357 36.4224 52.1357 32.2104 52.1357H22.787C18.5749 52.1357 15.2383 52.1357 12.6281 51.7851C9.94224 51.423 7.76745 50.6622 6.05099 48.948C4.33682 47.2316 3.57599 45.0568 3.21391 42.371C2.86328 39.7585 2.86328 36.4241 2.86328 32.212V27.372C2.86328 23.1599 2.86328 19.8232 3.21391 17.213C3.57599 14.5272 4.33682 12.3524 6.05099 10.636C7.76745 8.92178 9.94224 8.16095 12.6281 7.79887C13.162 7.72783 13.7281 7.67053 14.3216 7.6247V5.72949C14.3216 5.27365 14.5027 4.83648 14.825 4.51415C15.1474 4.19182 15.5845 4.01074 16.0404 4.01074ZM13.0841 11.2066C10.781 11.516 9.45182 12.098 8.48245 13.0674C7.51307 14.0368 6.93099 15.366 6.62161 17.6714C6.56891 18.061 6.52536 18.4735 6.4887 18.9066H48.5087C48.472 18.4712 48.4285 18.061 48.3758 17.6691C48.0664 15.366 47.4843 14.0368 46.5149 13.0674C45.5456 12.098 44.2164 11.516 41.911 11.2066C39.5574 10.8903 36.4522 10.8857 32.082 10.8857H22.9154C18.5452 10.8857 15.4422 10.8903 13.0841 11.2066ZM6.30078 27.5003C6.30078 25.5432 6.30078 23.8405 6.33057 22.3441H48.6668C48.6966 23.8405 48.6966 25.5432 48.6966 27.5003V32.0837C48.6966 36.4539 48.692 39.5591 48.3758 41.9149C48.0664 44.218 47.4843 45.5472 46.5149 46.5166C45.5456 47.486 44.2164 48.068 41.911 48.3774C39.5574 48.6937 36.4522 48.6982 32.082 48.6982H22.9154C18.5452 48.6982 15.4422 48.6937 13.0841 48.3774C10.781 48.068 9.45182 47.486 8.48245 46.5166C7.51307 45.5472 6.93099 44.218 6.62161 41.9126C6.30536 39.5591 6.30078 36.4539 6.30078 32.0837V27.5003Z" fill="black"/>
</g>
</g>
</svg>
