<svg width="97" height="69" viewBox="0 0 97 69" fill="none" xmlns="http://www.w3.org/2000/svg">
<path d="M52.0752 67.4792C51.5333 67.022 51.1033 66.4786 50.81 65.8804C50.5166 65.2821 50.3656 64.6407 50.3656 63.9929C50.3656 63.3451 50.5166 62.7037 50.81 62.1054C51.1033 61.5072 51.5333 60.9638 52.0752 60.5066L77.0156 39.3876H5.8125C4.27093 39.3876 2.7925 38.8691 1.70244 37.946C0.61239 37.023 0 35.7711 0 34.4658C0 33.1604 0.61239 31.9085 1.70244 30.9855C2.7925 30.0624 4.27093 29.5439 5.8125 29.5439H77.0156L52.0752 8.41674C50.9832 7.49211 50.3698 6.23804 50.3698 4.93041C50.3698 3.62279 50.9832 2.36872 52.0752 1.44408C53.1671 0.519453 54.6481 1.37783e-08 56.1923 0C57.7366 -1.37779e-08 59.2176 0.519453 60.3095 1.44408L95.1845 30.9753C95.7264 31.4326 96.1564 31.9759 96.4497 32.5742C96.7431 33.1725 96.8941 33.8139 96.8941 34.4617C96.8941 35.1094 96.7431 35.7509 96.4497 36.3491C96.1564 36.9474 95.7264 37.4907 95.1845 37.948L60.3095 67.4792C59.7695 67.9381 59.1279 68.3022 58.4213 68.5506C57.7148 68.799 56.9573 68.9269 56.1923 68.9269C55.4273 68.9269 54.6699 68.799 53.9633 68.5506C53.2568 68.3022 52.6152 67.9381 52.0752 67.4792Z" fill="black"/>
</svg>
