<svg width="30" height="30" viewBox="0 0 30 30" fill="none" xmlns="http://www.w3.org/2000/svg">
<g id="cil:credit-card">
<path id="Vector" d="M27.6562 4.21875H2.34375C1.97092 4.21918 1.61349 4.36748 1.34986 4.63111C1.08623 4.89474 0.937934 5.25217 0.9375 5.625V24.375C0.937934 24.7478 1.08623 25.1053 1.34986 25.3689C1.61349 25.6325 1.97092 25.7808 2.34375 25.7812H27.6562C28.0291 25.7808 28.3865 25.6325 28.6501 25.3689C28.9138 25.1053 29.0621 24.7478 29.0625 24.375V5.625C29.0621 5.25217 28.9138 4.89474 28.6501 4.63111C28.3865 4.36748 28.0291 4.21918 27.6562 4.21875ZM27.1875 6.09375V9.84375H2.8125V6.09375H27.1875ZM2.8125 23.9062V13.5938H27.1875V23.9062H2.8125Z" fill="black"/>
<path id="Vector_2" d="M5.15625 18.2812H8.90625V20.1562H5.15625V18.2812ZM10.7812 18.2812H14.5312V20.1562H10.7812V18.2812Z" fill="black"/>
</g>
</svg>
