<svg width="40" height="30" viewBox="0 0 40 30" fill="none" xmlns="http://www.w3.org/2000/svg">
<g id="logos:mastercard" clip-path="url(#clip0_197_6261)">
<path id="Vector" d="M7.27156 29.8506V27.865C7.27156 27.1037 6.79125 26.6074 5.96797 26.6074C5.55641 26.6074 5.11047 26.7398 4.80172 27.17C4.56172 26.806 4.21875 26.6074 3.70422 26.6074C3.36109 26.6074 3.01828 26.7066 2.74375 27.0707V26.6736H2.02344V29.8506H2.74375V28.0966C2.74375 27.5341 3.0525 27.2692 3.53281 27.2692C4.01281 27.2692 4.25313 27.5671 4.25313 28.0966V29.8506H4.97344V28.0966C4.97344 27.5341 5.31625 27.2692 5.76219 27.2692C6.2425 27.2692 6.4825 27.5671 6.4825 28.0966V29.8506H7.27156ZM17.9389 26.6736H16.7728V25.7139H16.0525V26.6736H15.4008V27.3022H16.0523V28.7585C16.0523 29.4867 16.3611 29.9168 17.1844 29.9168C17.4931 29.9168 17.8359 29.8176 18.0763 29.6852L17.8703 29.0894C17.6645 29.2218 17.4245 29.255 17.253 29.255C16.91 29.255 16.7728 29.0564 16.7728 28.7254V27.3022H17.9389V26.6736ZM24.0445 26.6073C23.633 26.6073 23.3586 26.806 23.187 27.0707V26.6736H22.4667V29.8506H23.187V28.0636C23.187 27.5341 23.427 27.2362 23.873 27.2362C24.0102 27.2362 24.1817 27.2694 24.3189 27.3024L24.5247 26.6406C24.3875 26.6074 24.1817 26.6074 24.0445 26.6074V26.6073ZM14.8177 26.9383C14.4745 26.7066 13.9944 26.6074 13.4798 26.6074C12.6567 26.6074 12.108 27.0045 12.108 27.6333C12.108 28.1629 12.5195 28.4606 13.2398 28.56L13.5828 28.5932C13.9602 28.6592 14.1659 28.7585 14.1659 28.9241C14.1659 29.1556 13.8916 29.3211 13.4113 29.3211C12.9311 29.3211 12.5537 29.1556 12.3136 28.9902L11.9706 29.5197C12.348 29.7844 12.8625 29.9168 13.3769 29.9168C14.3373 29.9168 14.8863 29.4867 14.8863 28.8909C14.8863 28.3283 14.4403 28.0304 13.7542 27.9312L13.4113 27.898C13.1025 27.8649 12.8625 27.7988 12.8625 27.6003C12.8625 27.3686 13.1025 27.2362 13.4798 27.2362C13.8916 27.2362 14.3031 27.4016 14.5089 27.5009L14.8177 26.9383ZM33.9575 26.6074C33.5458 26.6074 33.2714 26.806 33.0998 27.0707V26.6736H32.3795V29.8506H33.0998V28.0636C33.0998 27.5341 33.34 27.2362 33.7858 27.2362C33.9231 27.2362 34.0947 27.2694 34.2319 27.3024L34.4377 26.6406C34.3005 26.6074 34.0947 26.6074 33.9575 26.6074ZM24.7648 28.2621C24.7648 29.2218 25.4508 29.9168 26.5142 29.9168C26.9944 29.9168 27.3373 29.8176 27.6803 29.5528L27.3373 28.9902C27.063 29.1888 26.7886 29.288 26.4798 29.288C25.8967 29.288 25.4852 28.8909 25.4852 28.2621C25.4852 27.6665 25.8967 27.2692 26.4798 27.2362C26.7886 27.2362 27.063 27.3354 27.3373 27.5341L27.6803 26.9715C27.3373 26.7066 26.9944 26.6074 26.5142 26.6074C25.4508 26.6074 24.7648 27.3024 24.7648 28.2621ZM31.4192 28.2621V26.6736H30.6989V27.0707C30.4588 26.7729 30.1158 26.6074 29.6698 26.6074C28.7438 26.6074 28.0234 27.3024 28.0234 28.2621C28.0234 29.2218 28.7438 29.9168 29.6698 29.9168C30.15 29.9168 30.4931 29.7514 30.6989 29.4535V29.8506H31.4192V28.2621ZM28.778 28.2621C28.778 27.6995 29.1553 27.2362 29.7727 27.2362C30.3558 27.2362 30.7675 27.6665 30.7675 28.2621C30.7675 28.8247 30.3558 29.288 29.7727 29.288C29.1553 29.2548 28.778 28.8247 28.778 28.2621ZM20.1686 26.6074C19.2081 26.6074 18.522 27.2692 18.522 28.2621C18.522 29.255 19.208 29.9168 20.2028 29.9168C20.683 29.9168 21.1633 29.7844 21.5406 29.4867L21.1975 28.9902C20.9231 29.1888 20.5802 29.3211 20.2372 29.3211C19.7913 29.3211 19.3453 29.1226 19.2423 28.5598H21.6778V28.2953C21.7122 27.2692 21.0948 26.6074 20.1686 26.6074ZM20.1686 27.2031C20.6144 27.2031 20.9233 27.4679 20.9917 27.9644H19.2767C19.3453 27.5341 19.6541 27.2031 20.1686 27.2031ZM38.0392 28.2621V25.416H37.3189V27.0707C37.0788 26.7729 36.7358 26.6074 36.2898 26.6074C35.3638 26.6074 34.6434 27.3024 34.6434 28.2621C34.6434 29.2218 35.3638 29.9168 36.2898 29.9168C36.7702 29.9168 37.1131 29.7514 37.3189 29.4535V29.8506H38.0392V28.2621ZM35.3981 28.2621C35.3981 27.6995 35.7753 27.2362 36.3928 27.2362C36.9759 27.2362 37.3875 27.6665 37.3875 28.2621C37.3875 28.8247 36.9759 29.288 36.3928 29.288C35.7753 29.2548 35.3981 28.8247 35.3981 28.2621ZM11.3189 28.2621V26.6736H10.5986V27.0707C10.3584 26.7729 10.0155 26.6074 9.56953 26.6074C8.64344 26.6074 7.92312 27.3024 7.92312 28.2621C7.92312 29.2218 8.64344 29.9168 9.56953 29.9168C10.0498 29.9168 10.3928 29.7514 10.5986 29.4535V29.8506H11.3189V28.2621ZM8.64344 28.2621C8.64344 27.6995 9.02078 27.2362 9.63813 27.2362C10.2213 27.2362 10.633 27.6665 10.633 28.2621C10.633 28.8247 10.2213 29.288 9.63813 29.288C9.02078 29.2548 8.64344 28.8247 8.64344 28.2621Z" fill="black"/>
<path id="Vector_2" d="M14.5781 2.54785H25.3828V21.2792H14.5781V2.54785Z" fill="#FF5F00"/>
<path id="Vector_3" d="M15.2639 11.9139C15.2639 8.10814 17.1161 4.73246 19.963 2.54819C17.8708 0.959698 15.2297 0 12.3484 0C5.52234 0 0 5.32809 0 11.9139C0 18.4996 5.52234 23.8278 12.3483 23.8278C15.2295 23.8278 17.8706 22.8681 19.963 21.2795C17.1161 19.1284 15.2639 15.7197 15.2639 11.9139Z" fill="#EB001B"/>
<path id="Vector_4" d="M39.9591 11.9139C39.9591 18.4996 34.4367 23.8278 27.6108 23.8278C24.7295 23.8278 22.0884 22.8681 19.9961 21.2795C22.8773 19.0954 24.6953 15.7197 24.6953 11.9139C24.6953 8.10814 22.843 4.73246 19.9961 2.54819C22.0883 0.959698 24.7295 0 27.6108 0C34.4367 0 39.9591 5.36126 39.9591 11.9139Z" fill="#F79E1B"/>
</g>
<defs>
<clipPath id="clip0_197_6261">
<rect width="40" height="30" fill="white"/>
</clipPath>
</defs>
</svg>
